<svg xmlns="http://www.w3.org/2000/svg" width="1550" height="480" viewBox="205 470 1550 480"><defs><linearGradient id="planks" x2="0" y2="1"><stop stop-color="#746a4e"/><stop offset=".28" stop-color="#625945"/><stop offset="1" stop-color="#3e4136"/></linearGradient>
    <linearGradient id="cabin" x2="1" y2=".4"><stop stop-color="#495348"/><stop offset=".48" stop-color="#35443b"/><stop offset="1" stop-color="#1b302d"/></linearGradient>
    <linearGradient id="lamp" x2="0" y2="1"><stop stop-color="#ddb377" stop-opacity=".9"/><stop offset="1" stop-color="#986944" stop-opacity=".52"/></linearGradient>
    <pattern id="cross" width="14" height="14" patternUnits="userSpaceOnUse"><path d="M-2 14L14 -2M8 18L18 8" stroke="#e0d3af" stroke-opacity=".09" stroke-width="1"/></pattern></defs><path d="M264 617L1614 616 1740 754 1614 938 300 938 219 851Z" fill="#121f1e" stroke="#0e1d1d" stroke-width="16" stroke-linejoin="round"/>
    <path d="M276 622L1605 622 1713 754 1598 914 311 916 239 848Z" fill="url(#planks)" stroke="#b29a6c" stroke-width="8" stroke-linejoin="round"/>
    <path d="M281 624H1600l30 34H270Z" fill="#b9a376" opacity=".16"/>
    <path d="M311 916H1598L1713 754l-121 143H314Z" fill="#122420" opacity=".31"/>
    <path d="M243 849l70 67 1284 -1 116 -161" fill="none" stroke="#ceb486" stroke-opacity=".35" stroke-width="3"/><path d="M276 653Q930 650 1631 651" fill="none" stroke="#172723" stroke-opacity=".62" stroke-width="4"/>
      <path d="M283 658Q950 656 1611 658" fill="none" stroke="#d6c49a" stroke-opacity=".13" stroke-width="2"/><path d="M282 689Q930 688 1643 687" fill="none" stroke="#172723" stroke-opacity=".62" stroke-width="5"/>
      <path d="M289 694Q950 692 1623 694" fill="none" stroke="#d6c49a" stroke-opacity=".13" stroke-width="2"/><path d="M288 725Q930 726 1655 723" fill="none" stroke="#172723" stroke-opacity=".62" stroke-width="4"/>
      <path d="M295 730Q950 728 1635 730" fill="none" stroke="#d6c49a" stroke-opacity=".13" stroke-width="2"/><path d="M294 761Q930 758 1667 759" fill="none" stroke="#172723" stroke-opacity=".62" stroke-width="5"/>
      <path d="M301 766Q950 764 1647 766" fill="none" stroke="#d6c49a" stroke-opacity=".13" stroke-width="2"/><path d="M299 797Q930 796 1678 795" fill="none" stroke="#172723" stroke-opacity=".62" stroke-width="4"/>
      <path d="M306 802Q950 800 1658 802" fill="none" stroke="#d6c49a" stroke-opacity=".13" stroke-width="2"/><path d="M305 833Q930 834 1690 831" fill="none" stroke="#172723" stroke-opacity=".62" stroke-width="5"/>
      <path d="M312 838Q950 836 1670 838" fill="none" stroke="#d6c49a" stroke-opacity=".13" stroke-width="2"/><path d="M311 869Q930 866 1702 867" fill="none" stroke="#172723" stroke-opacity=".62" stroke-width="4"/>
      <path d="M318 874Q950 872 1682 874" fill="none" stroke="#d6c49a" stroke-opacity=".13" stroke-width="2"/><path d="M317 905Q930 904 1714 903" fill="none" stroke="#172723" stroke-opacity=".62" stroke-width="5"/>
      <path d="M324 910Q950 908 1694 910" fill="none" stroke="#d6c49a" stroke-opacity=".13" stroke-width="2"/><path d="M380 626l-48 285" stroke="#1a2925" stroke-opacity=".4" stroke-width="3"/>
      <path d="M393 645q-22 57 3 112m-9 13q-17 44 1 105" fill="none" stroke="#d9c7a0" stroke-opacity=".08" stroke-width="2"/><path d="M563 626l-33 285" stroke="#1a2925" stroke-opacity=".4" stroke-width="3"/>
      <path d="M576 645q-22 57 3 112m-9 13q-17 44 1 105" fill="none" stroke="#d9c7a0" stroke-opacity=".08" stroke-width="2"/><path d="M746 626l-17 285" stroke="#1a2925" stroke-opacity=".4" stroke-width="3"/>
      <path d="M759 645q-22 57 3 112m-9 13q-17 44 1 105" fill="none" stroke="#d9c7a0" stroke-opacity=".08" stroke-width="2"/><path d="M929 626l-2 285" stroke="#1a2925" stroke-opacity=".4" stroke-width="3"/>
      <path d="M942 645q-22 57 3 112m-9 13q-17 44 1 105" fill="none" stroke="#d9c7a0" stroke-opacity=".08" stroke-width="2"/><path d="M1112 626l14 285" stroke="#1a2925" stroke-opacity=".4" stroke-width="3"/>
      <path d="M1125 645q-22 57 3 112m-9 13q-17 44 1 105" fill="none" stroke="#d9c7a0" stroke-opacity=".08" stroke-width="2"/><path d="M1295 626l29 285" stroke="#1a2925" stroke-opacity=".4" stroke-width="3"/>
      <path d="M1308 645q-22 57 3 112m-9 13q-17 44 1 105" fill="none" stroke="#d9c7a0" stroke-opacity=".08" stroke-width="2"/><path d="M1478 626l45 285" stroke="#1a2925" stroke-opacity=".4" stroke-width="3"/>
      <path d="M1491 645q-22 57 3 112m-9 13q-17 44 1 105" fill="none" stroke="#d9c7a0" stroke-opacity=".08" stroke-width="2"/><g fill="none" stroke="#cabf9d" stroke-opacity="0.115" stroke-linecap="round"><path d="M862 697l30 0" stroke-width="1.1"/><path d="M1360 850l14 1" stroke-width="1.0"/><path d="M682 903l22 1" stroke-width="0.9"/><path d="M577 642l31 -1" stroke-width="0.8"/><path d="M794 754l30 0" stroke-width="2.1"/><path d="M339 728l12 -3" stroke-width="0.8"/><path d="M1168 720l22 1" stroke-width="1.5"/><path d="M500 718l28 -1" stroke-width="0.9"/><path d="M1227 658l33 1" stroke-width="0.8"/><path d="M1572 688l7 1" stroke-width="1.1"/><path d="M313 659l27 1" stroke-width="0.8"/><path d="M692 804l21 1" stroke-width="1.6"/><path d="M1178 766l19 -1" stroke-width="1.4"/><path d="M1232 774l10 0" stroke-width="1.2"/><path d="M1046 775l14 1" stroke-width="1.8"/><path d="M1299 719l24 0" stroke-width="1.3"/><path d="M1087 717l26 -1" stroke-width="1.5"/><path d="M616 798l5 -2" stroke-width="2.1"/><path d="M676 904l18 0" stroke-width="0.8"/><path d="M360 847l18 -2" stroke-width="0.9"/><path d="M964 733l25 -3" stroke-width="0.7"/><path d="M894 849l15 2" stroke-width="1.3"/><path d="M1342 790l24 2" stroke-width="2.0"/><path d="M526 855l12 -2" stroke-width="1.3"/><path d="M503 863l24 2" stroke-width="0.8"/><path d="M590 789l28 -1" stroke-width="1.2"/><path d="M545 816l11 -2" stroke-width="1.4"/><path d="M604 662l30 -2" stroke-width="0.7"/><path d="M684 688l27 0" stroke-width="1.1"/><path d="M374 765l28 -2" stroke-width="0.7"/><path d="M1151 898l9 1" stroke-width="0.9"/><path d="M346 862l28 -3" stroke-width="0.7"/><path d="M337 711l12 -2" stroke-width="1.6"/><path d="M865 778l22 1" stroke-width="0.8"/><path d="M1199 846l25 1" stroke-width="1.9"/><path d="M1132 686l30 2" stroke-width="1.8"/><path d="M636 816l29 -3" stroke-width="2.0"/><path d="M1228 673l11 1" stroke-width="1.3"/><path d="M971 677l33 -2" stroke-width="1.0"/><path d="M899 821l4 -2" stroke-width="1.1"/><path d="M1395 658l28 -2" stroke-width="0.8"/><path d="M1536 875l24 0" stroke-width="1.0"/><path d="M1113 823l21 0" stroke-width="1.4"/><path d="M1172 675l9 -3" stroke-width="1.0"/><path d="M1500 731l10 -2" stroke-width="0.8"/><path d="M693 790l20 1" stroke-width="1.9"/><path d="M463 845l21 1" stroke-width="1.5"/><path d="M852 779l4 -3" stroke-width="1.4"/><path d="M770 764l22 -2" stroke-width="1.2"/><path d="M1197 737l14 0" stroke-width="2.1"/><path d="M1276 782l8 2" stroke-width="1.9"/><path d="M388 855l21 -2" stroke-width="1.2"/><path d="M885 791l22 1" stroke-width="1.6"/><path d="M382 660l20 -1" stroke-width="2.0"/><path d="M453 652l5 -2" stroke-width="1.6"/><path d="M592 868l31 2" stroke-width="1.8"/><path d="M743 868l9 2" stroke-width="1.8"/><path d="M550 838l32 -3" stroke-width="2.0"/><path d="M674 727l32 0" stroke-width="0.7"/><path d="M1149 864l7 0" stroke-width="0.7"/><path d="M1153 877l11 1" stroke-width="1.5"/><path d="M331 666l27 1" stroke-width="1.3"/><path d="M1497 687l11 0" stroke-width="1.3"/><path d="M376 826l32 -1" stroke-width="1.5"/><path d="M809 846l6 0" stroke-width="1.2"/><path d="M341 852l32 1" stroke-width="1.9"/><path d="M1131 673l12 -2" stroke-width="0.7"/><path d="M640 806l20 -2" stroke-width="0.7"/><path d="M356 656l28 -2" stroke-width="1.2"/><path d="M1459 660l10 1" stroke-width="1.5"/><path d="M1561 845l4 1" stroke-width="1.9"/><path d="M1129 821l29 -3" stroke-width="1.7"/><path d="M974 764l32 0" stroke-width="1.7"/><path d="M1292 811l31 -1" stroke-width="1.0"/><path d="M1036 723l8 -2" stroke-width="0.8"/><path d="M978 895l23 -1" stroke-width="1.1"/><path d="M861 822l5 -3" stroke-width="1.6"/><path d="M1054 825l9 0" stroke-width="1.8"/><path d="M506 735l28 1" stroke-width="1.4"/><path d="M1468 872l14 -1" stroke-width="0.8"/><path d="M984 899l32 -3" stroke-width="1.4"/><path d="M910 741l26 -2" stroke-width="1.6"/><path d="M982 872l14 -3" stroke-width="1.4"/><path d="M1485 790l28 -3" stroke-width="1.9"/><path d="M1096 701l10 0" stroke-width="1.8"/><path d="M506 743l10 0" stroke-width="0.9"/><path d="M1127 653l18 -3" stroke-width="1.4"/><path d="M1225 765l25 1" stroke-width="1.5"/><path d="M582 844l8 -3" stroke-width="1.4"/><path d="M1265 642l28 0" stroke-width="0.6"/><path d="M849 838l12 -1" stroke-width="1.1"/><path d="M1277 765l17 2" stroke-width="0.9"/><path d="M1126 869l18 1" stroke-width="0.9"/><path d="M965 707l9 2" stroke-width="1.9"/><path d="M359 676l22 1" stroke-width="1.4"/><path d="M1189 719l10 -1" stroke-width="0.7"/><path d="M812 647l26 1" stroke-width="1.7"/><path d="M837 826l13 -3" stroke-width="1.8"/><path d="M1125 725l18 2" stroke-width="2.0"/><path d="M657 660l24 1" stroke-width="0.9"/><path d="M321 791l9 1" stroke-width="1.7"/><path d="M987 675l11 -1" stroke-width="0.6"/><path d="M1357 853l27 -1" stroke-width="1.9"/><path d="M387 662l30 -2" stroke-width="0.9"/><path d="M1244 758l13 0" stroke-width="1.1"/><path d="M1173 722l17 -2" stroke-width="1.4"/><path d="M793 877l11 -2" stroke-width="1.4"/><path d="M1311 689l32 -1" stroke-width="1.8"/><path d="M1176 664l14 -3" stroke-width="1.4"/><path d="M1311 676l5 -2" stroke-width="1.2"/><path d="M381 876l30 -1" stroke-width="1.8"/><path d="M1111 796l8 -1" stroke-width="0.7"/><path d="M795 768l10 -2" stroke-width="1.0"/><path d="M1456 731l7 0" stroke-width="2.0"/><path d="M731 684l21 0" stroke-width="0.9"/><path d="M1457 830l31 1" stroke-width="0.8"/><path d="M1373 712l5 -3" stroke-width="2.0"/><path d="M1389 743l27 2" stroke-width="2.1"/><path d="M955 847l24 0" stroke-width="2.0"/><path d="M1234 770l22 1" stroke-width="1.5"/><path d="M868 742l26 0" stroke-width="1.8"/><path d="M1481 655l7 -2" stroke-width="1.7"/><path d="M1110 641l18 -1" stroke-width="0.7"/><path d="M1319 713l32 -1" stroke-width="0.7"/><path d="M965 900l12 -2" stroke-width="2.0"/><path d="M480 678l22 -3" stroke-width="0.6"/><path d="M1552 708l25 -2" stroke-width="1.9"/><path d="M678 687l27 -2" stroke-width="1.2"/><path d="M582 809l11 -1" stroke-width="1.5"/><path d="M1503 647l25 0" stroke-width="2.0"/><path d="M487 904l24 -2" stroke-width="1.9"/><path d="M999 807l13 1" stroke-width="1.4"/><path d="M359 801l33 0" stroke-width="0.9"/><path d="M741 693l26 -2" stroke-width="0.8"/><path d="M318 774l27 0" stroke-width="2.0"/><path d="M1573 715l8 1" stroke-width="1.7"/><path d="M706 896l23 1" stroke-width="0.8"/><path d="M1535 889l15 0" stroke-width="1.5"/><path d="M396 690l13 0" stroke-width="1.9"/><path d="M991 858l26 -2" stroke-width="1.1"/><path d="M616 699l28 1" stroke-width="1.3"/><path d="M801 803l5 0" stroke-width="1.4"/><path d="M1471 660l14 -2" stroke-width="1.8"/><path d="M804 909l31 -1" stroke-width="1.9"/><path d="M967 899l11 -1" stroke-width="1.4"/><path d="M1355 813l11 0" stroke-width="1.2"/><path d="M1398 650l19 -1" stroke-width="0.7"/><path d="M1489 698l27 2" stroke-width="1.6"/><path d="M954 676l13 0" stroke-width="1.2"/><path d="M1573 829l12 0" stroke-width="2.0"/><path d="M344 651l16 2" stroke-width="1.7"/><path d="M566 725l10 -2" stroke-width="1.2"/><path d="M954 723l5 -1" stroke-width="0.9"/><path d="M1242 847l33 1" stroke-width="1.3"/><path d="M801 673l21 1" stroke-width="1.4"/><path d="M506 742l18 1" stroke-width="1.5"/><path d="M1134 669l20 2" stroke-width="0.7"/><path d="M1265 762l24 2" stroke-width="0.9"/><path d="M830 666l28 -1" stroke-width="2.1"/><path d="M1076 898l31 -1" stroke-width="1.0"/><path d="M773 749l31 1" stroke-width="1.1"/><path d="M869 721l17 -2" stroke-width="2.1"/><path d="M1023 680l9 1" stroke-width="1.4"/><path d="M1022 814l27 -2" stroke-width="0.8"/><path d="M1038 673l9 0" stroke-width="1.7"/><path d="M1355 675l21 1" stroke-width="1.2"/><path d="M1222 856l27 -2" stroke-width="1.2"/><path d="M1044 697l9 -2" stroke-width="1.0"/><path d="M1478 835l28 -1" stroke-width="1.5"/><path d="M1471 835l20 -2" stroke-width="0.9"/><path d="M435 891l12 2" stroke-width="1.0"/><path d="M1578 805l18 -2" stroke-width="1.8"/><path d="M1294 828l10 0" stroke-width="1.3"/><path d="M483 711l29 -2" stroke-width="1.1"/><path d="M939 865l21 -3" stroke-width="1.4"/><path d="M790 783l8 0" stroke-width="1.5"/><path d="M1407 814l18 0" stroke-width="1.8"/><path d="M1064 748l11 1" stroke-width="1.3"/><path d="M1240 762l25 0" stroke-width="1.5"/><path d="M1027 748l22 1" stroke-width="1.6"/><path d="M1098 850l31 1" stroke-width="1.3"/><path d="M580 888l28 -3" stroke-width="1.7"/><path d="M1243 734l30 -2" stroke-width="0.7"/><path d="M311 896l20 -1" stroke-width="0.7"/><path d="M1248 880l5 -2" stroke-width="1.3"/><path d="M612 705l16 -3" stroke-width="1.9"/><path d="M1121 905l33 -2" stroke-width="1.9"/><path d="M809 841l21 -2" stroke-width="0.8"/><path d="M915 689l19 -2" stroke-width="1.9"/><path d="M927 727l27 -2" stroke-width="0.9"/><path d="M1245 739l5 1" stroke-width="0.9"/><path d="M1276 729l31 1" stroke-width="1.8"/><path d="M1182 765l22 2" stroke-width="0.8"/><path d="M683 832l28 1" stroke-width="1.3"/><path d="M641 707l18 -2" stroke-width="1.5"/><path d="M902 875l24 -1" stroke-width="2.1"/><path d="M1106 802l9 0" stroke-width="1.0"/><path d="M601 840l30 1" stroke-width="1.0"/><path d="M709 705l30 0" stroke-width="2.1"/><path d="M1419 751l6 1" stroke-width="0.6"/><path d="M342 704l21 1" stroke-width="0.8"/><path d="M1377 683l16 0" stroke-width="1.3"/><path d="M802 828l23 0" stroke-width="0.9"/><path d="M974 695l15 -2" stroke-width="1.3"/><path d="M1583 691l20 -2" stroke-width="0.6"/><path d="M371 832l9 -2" stroke-width="1.5"/><path d="M691 687l31 -2" stroke-width="1.1"/><path d="M532 818l12 1" stroke-width="0.9"/><path d="M1158 645l24 -2" stroke-width="0.8"/><path d="M425 752l12 0" stroke-width="1.1"/><path d="M1014 852l32 1" stroke-width="1.4"/><path d="M338 882l30 0" stroke-width="1.2"/><path d="M1241 824l21 1" stroke-width="0.7"/><path d="M1472 796l9 1" stroke-width="0.8"/><path d="M742 860l24 -3" stroke-width="1.6"/><path d="M1416 899l10 -2" stroke-width="1.2"/><path d="M662 706l25 1" stroke-width="1.1"/><path d="M957 847l29 2" stroke-width="1.9"/><path d="M1293 738l28 1" stroke-width="1.9"/><path d="M539 680l21 1" stroke-width="1.2"/><path d="M971 668l19 -2" stroke-width="0.9"/><path d="M1252 731l11 0" stroke-width="0.9"/><path d="M354 887l10 -2" stroke-width="2.1"/><path d="M671 661l33 -2" stroke-width="1.9"/><path d="M743 689l22 1" stroke-width="1.2"/><path d="M795 688l16 1" stroke-width="1.7"/><path d="M1025 665l8 -1" stroke-width="1.0"/><path d="M354 734l29 -1" stroke-width="2.1"/><path d="M1329 645l12 -3" stroke-width="1.3"/><path d="M1069 853l15 -1" stroke-width="0.9"/><path d="M798 645l19 0" stroke-width="1.9"/><path d="M1336 906l15 1" stroke-width="1.2"/><path d="M1537 842l23 -3" stroke-width="1.0"/><path d="M386 875l8 1" stroke-width="1.5"/><path d="M688 898l21 -1" stroke-width="0.9"/><path d="M1100 650l15 1" stroke-width="0.6"/><path d="M1236 739l6 -2" stroke-width="1.7"/><path d="M824 644l17 -3" stroke-width="1.6"/><path d="M969 711l16 -3" stroke-width="0.8"/><path d="M1275 898l31 -2" stroke-width="0.6"/><path d="M967 866l7 -3" stroke-width="0.8"/><path d="M1217 695l24 -2" stroke-width="1.9"/><path d="M1416 853l7 2" stroke-width="1.5"/><path d="M506 821l13 -2" stroke-width="0.6"/><path d="M1562 865l21 0" stroke-width="0.8"/><path d="M611 684l14 -1" stroke-width="1.8"/><path d="M1309 695l20 1" stroke-width="1.6"/><path d="M849 771l12 -1" stroke-width="1.7"/><path d="M444 710l5 1" stroke-width="1.6"/><path d="M1100 869l21 1" stroke-width="1.6"/></g><path d="M354 631l250 16 109 197-332 -37Z" fill="#182723" opacity=".24"/>
    <path d="M346 493l220 -2 1 147-220 1Z" fill="url(#cabin)" stroke="#10211f" stroke-width="7"/>
    <path d="M329 481l242 -2-15 22-207 2Z" fill="#172825" stroke="#0c1b1a" stroke-width="5"/>
    <path d="M336 482l217 0-12 6-191 0Z" fill="#b1986d" opacity=".55"/>
    <path d="M346 499l16 0 0 136-16 3m205 -139l14 0 0 140-14 0" fill="#162b27" opacity=".65"/>
    <path d="M370 510H541V627H370Z" fill="url(#cross)" opacity=".52"/>
    <path d="M375 519h69v53h-69Zm91 0h69v53h-69Z" fill="#132521" stroke="#0e1c1c" stroke-width="5"/>
    <path d="M381 526h57v40h-57Zm91 0h57v40h-57Z" fill="url(#lamp)"/>
    <path d="M411 522v46m-33 -22h63m61 -24v46m-32 -22h62" fill="none" stroke="#192623" stroke-width="5"/>
    <path d="M380 570q39 5 60 0m31 0q42 5 60 0" fill="none" stroke="#d5bc86" stroke-opacity=".23" stroke-width="2"/>
    <path d="M351 602q45 9 88 -3 73 14 120 0" fill="none" stroke="#c2ae88" stroke-opacity=".18" stroke-width="2"/>
    <path d="M375 577l65 0 74 132-196 0Z" fill="#c17d48" opacity=".045"/>
    <path d="M471 577l61 0 95 124-118 0Z" fill="#c17d48" opacity=".035"/><g fill="none" stroke="#cabf9d" stroke-opacity="0.075" stroke-linecap="round"><path d="M481 623l16 -2" stroke-width="1.9"/><path d="M422 526l14 -2" stroke-width="1.5"/><path d="M428 606l6 -3" stroke-width="0.9"/><path d="M387 570l8 -1" stroke-width="0.7"/><path d="M374 595l7 1" stroke-width="1.5"/><path d="M372 506l11 2" stroke-width="0.7"/><path d="M522 526l14 1" stroke-width="1.2"/><path d="M372 540l17 1" stroke-width="1.8"/><path d="M501 618l15 -2" stroke-width="1.4"/><path d="M494 560l10 1" stroke-width="2.1"/><path d="M407 616l10 1" stroke-width="1.7"/><path d="M497 631l19 -3" stroke-width="1.7"/><path d="M496 627l11 -2" stroke-width="1.6"/><path d="M394 582l7 1" stroke-width="1.8"/><path d="M527 536l15 -2" stroke-width="1.7"/><path d="M542 594l10 1" stroke-width="1.0"/><path d="M486 510l16 -2" stroke-width="1.1"/><path d="M542 550l9 1" stroke-width="1.4"/><path d="M524 622l7 0" stroke-width="1.5"/><path d="M504 591l5 -3" stroke-width="1.0"/><path d="M360 553l19 0" stroke-width="0.7"/><path d="M450 507l14 1" stroke-width="0.9"/><path d="M417 516l12 -2" stroke-width="0.7"/><path d="M424 628l18 0" stroke-width="1.8"/><path d="M386 582l4 1" stroke-width="2.1"/><path d="M443 501l19 0" stroke-width="1.2"/><path d="M369 598l19 -2" stroke-width="1.0"/><path d="M376 515l16 0" stroke-width="1.5"/><path d="M391 621l16 1" stroke-width="1.7"/><path d="M392 534l10 -1" stroke-width="1.0"/><path d="M358 577l18 0" stroke-width="1.2"/><path d="M489 524l10 1" stroke-width="1.6"/><path d="M459 534l20 1" stroke-width="0.8"/><path d="M524 544l14 -2" stroke-width="0.8"/><path d="M497 532l6 -1" stroke-width="1.1"/><path d="M498 553l19 -2" stroke-width="0.8"/><path d="M444 619l11 2" stroke-width="1.1"/><path d="M456 523l14 -2" stroke-width="1.2"/><path d="M552 555l18 2" stroke-width="1.9"/><path d="M426 554l18 0" stroke-width="1.5"/><path d="M556 531l19 -1" stroke-width="2.1"/><path d="M453 619l15 -2" stroke-width="1.5"/><path d="M516 525l6 -3" stroke-width="1.4"/><path d="M377 502l4 1" stroke-width="1.0"/><path d="M404 572l16 -3" stroke-width="1.2"/><path d="M515 576l7 -1" stroke-width="2.0"/><path d="M492 578l9 -2" stroke-width="0.8"/><path d="M513 597l14 2" stroke-width="0.9"/><path d="M502 541l11 2" stroke-width="1.0"/><path d="M399 545l13 0" stroke-width="1.3"/><path d="M415 576l12 0" stroke-width="0.7"/><path d="M532 594l11 1" stroke-width="1.8"/><path d="M447 506l8 -2" stroke-width="0.9"/><path d="M371 590l18 1" stroke-width="1.1"/><path d="M417 520l20 -1" stroke-width="1.6"/><path d="M442 584l13 0" stroke-width="1.5"/><path d="M538 608l15 0" stroke-width="1.9"/><path d="M357 572l19 2" stroke-width="1.3"/><path d="M422 558l10 1" stroke-width="0.6"/><path d="M401 611l9 -3" stroke-width="0.9"/><path d="M537 631l16 2" stroke-width="1.9"/><path d="M475 576l14 -3" stroke-width="1.3"/><path d="M491 583l6 0" stroke-width="1.3"/><path d="M511 590l14 -2" stroke-width="1.6"/><path d="M390 604l10 -2" stroke-width="1.5"/><path d="M510 607l6 1" stroke-width="0.7"/><path d="M410 549l11 1" stroke-width="1.0"/><path d="M465 618l9 -1" stroke-width="0.9"/><path d="M403 597l10 -3" stroke-width="1.3"/><path d="M396 561l16 1" stroke-width="1.8"/><path d="M544 632l20 -1" stroke-width="0.8"/><path d="M475 568l12 0" stroke-width="1.5"/><path d="M460 515l12 0" stroke-width="0.8"/><path d="M380 596l11 -1" stroke-width="1.2"/><path d="M500 565l18 0" stroke-width="0.6"/><path d="M385 564l10 1" stroke-width="1.2"/><path d="M398 616l17 -1" stroke-width="1.7"/><path d="M389 592l12 0" stroke-width="1.3"/><path d="M401 534l5 2" stroke-width="1.1"/><path d="M354 527l17 -1" stroke-width="1.5"/><path d="M405 607l12 1" stroke-width="1.4"/><path d="M444 611l12 1" stroke-width="1.7"/><path d="M386 503l18 -2" stroke-width="1.8"/><path d="M533 566l14 2" stroke-width="0.7"/><path d="M370 602l18 1" stroke-width="1.1"/><path d="M506 583l9 -2" stroke-width="1.9"/><path d="M368 565l7 0" stroke-width="1.0"/><path d="M538 609l11 -2" stroke-width="1.3"/><path d="M452 542l6 2" stroke-width="1.7"/><path d="M487 528l19 -3" stroke-width="2.1"/><path d="M479 559l10 1" stroke-width="1.6"/><path d="M365 589l6 0" stroke-width="1.1"/><path d="M445 516l9 -2" stroke-width="1.4"/><path d="M543 543l15 -2" stroke-width="2.0"/><path d="M457 576l12 -3" stroke-width="2.0"/></g></svg>
